<mxfile host="Electron" agent="Mozilla/5.0 (Windows NT 10.0; Win64; x64) AppleWebKit/537.36 (KHTML, like Gecko) draw.io/26.2.15 Chrome/134.0.6998.205 Electron/35.2.1 Safari/537.36" version="26.2.15">
  <diagram name="Page-1" id="AmbkzLcin1dmVTFJVsqT">
    <mxGraphModel dx="2431" dy="1413" grid="1" gridSize="10" guides="1" tooltips="1" connect="1" arrows="1" fold="1" page="1" pageScale="1" pageWidth="850" pageHeight="1100" math="0" shadow="0">
      <root>
        <mxCell id="0" />
        <mxCell id="1" parent="0" />
        <mxCell id="Cysnax2tPpi3eK0t_XXS-1" value="Presentation&lt;div&gt;Layer&lt;/div&gt;" style="whiteSpace=wrap;html=1;aspect=fixed;" vertex="1" parent="1">
          <mxGeometry x="605" y="310" width="80" height="80" as="geometry" />
        </mxCell>
        <mxCell id="Cysnax2tPpi3eK0t_XXS-3" value="State&amp;nbsp;&lt;div&gt;Management&lt;/div&gt;&lt;div&gt;------------&lt;/div&gt;&lt;div&gt;API Layer&lt;/div&gt;" style="whiteSpace=wrap;html=1;aspect=fixed;" vertex="1" parent="1">
          <mxGeometry x="740" y="640" width="80" height="80" as="geometry" />
        </mxCell>
        <mxCell id="Cysnax2tPpi3eK0t_XXS-4" value="Application&lt;div&gt;Layer&lt;/div&gt;" style="whiteSpace=wrap;html=1;aspect=fixed;" vertex="1" parent="1">
          <mxGeometry x="605" y="480" width="80" height="80" as="geometry" />
        </mxCell>
        <mxCell id="Cysnax2tPpi3eK0t_XXS-5" value="Domain&lt;div&gt;Layer&lt;/div&gt;" style="whiteSpace=wrap;html=1;aspect=fixed;" vertex="1" parent="1">
          <mxGeometry x="480" y="640" width="80" height="80" as="geometry" />
        </mxCell>
        <mxCell id="Cysnax2tPpi3eK0t_XXS-7" value="" style="endArrow=classic;html=1;rounded=0;exitX=0.5;exitY=1;exitDx=0;exitDy=0;entryX=0.5;entryY=0;entryDx=0;entryDy=0;flowAnimation=1;strokeColor=#FFFF00;" edge="1" parent="1" source="Cysnax2tPpi3eK0t_XXS-1" target="Cysnax2tPpi3eK0t_XXS-4">
          <mxGeometry width="50" height="50" relative="1" as="geometry">
            <mxPoint x="785" y="370" as="sourcePoint" />
            <mxPoint x="835" y="320" as="targetPoint" />
            <Array as="points" />
          </mxGeometry>
        </mxCell>
        <mxCell id="Cysnax2tPpi3eK0t_XXS-9" value="" style="endArrow=classic;html=1;rounded=0;exitX=0;exitY=0.5;exitDx=0;exitDy=0;entryX=0.5;entryY=0;entryDx=0;entryDy=0;flowAnimation=1;strokeColor=#FFFF00;" edge="1" parent="1" source="Cysnax2tPpi3eK0t_XXS-4" target="Cysnax2tPpi3eK0t_XXS-5">
          <mxGeometry width="50" height="50" relative="1" as="geometry">
            <mxPoint x="770" y="670" as="sourcePoint" />
            <mxPoint x="820" y="620" as="targetPoint" />
            <Array as="points">
              <mxPoint x="520" y="520" />
            </Array>
          </mxGeometry>
        </mxCell>
        <mxCell id="Cysnax2tPpi3eK0t_XXS-10" value="" style="endArrow=classic;html=1;rounded=0;exitX=1;exitY=0.5;exitDx=0;exitDy=0;entryX=0.5;entryY=0;entryDx=0;entryDy=0;flowAnimation=1;strokeColor=#FFFF00;" edge="1" parent="1" source="Cysnax2tPpi3eK0t_XXS-4" target="Cysnax2tPpi3eK0t_XXS-3">
          <mxGeometry width="50" height="50" relative="1" as="geometry">
            <mxPoint x="820" y="510" as="sourcePoint" />
            <mxPoint x="870" y="460" as="targetPoint" />
            <Array as="points">
              <mxPoint x="780" y="520" />
            </Array>
          </mxGeometry>
        </mxCell>
        <mxCell id="Cysnax2tPpi3eK0t_XXS-11" value="Local Storage" style="rounded=1;whiteSpace=wrap;html=1;" vertex="1" parent="1">
          <mxGeometry x="900" y="540" width="120" height="60" as="geometry" />
        </mxCell>
        <mxCell id="Cysnax2tPpi3eK0t_XXS-12" value="IndexDB" style="rounded=1;whiteSpace=wrap;html=1;" vertex="1" parent="1">
          <mxGeometry x="900" y="650" width="120" height="60" as="geometry" />
        </mxCell>
        <mxCell id="Cysnax2tPpi3eK0t_XXS-13" value="API Endpoints" style="rounded=1;whiteSpace=wrap;html=1;" vertex="1" parent="1">
          <mxGeometry x="900" y="770" width="120" height="60" as="geometry" />
        </mxCell>
        <mxCell id="Cysnax2tPpi3eK0t_XXS-14" value="" style="endArrow=classic;html=1;rounded=0;exitX=1;exitY=0.5;exitDx=0;exitDy=0;entryX=0;entryY=0.5;entryDx=0;entryDy=0;flowAnimation=1;strokeColor=#FFFF00;" edge="1" parent="1" source="Cysnax2tPpi3eK0t_XXS-3" target="Cysnax2tPpi3eK0t_XXS-11">
          <mxGeometry width="50" height="50" relative="1" as="geometry">
            <mxPoint x="820" y="680" as="sourcePoint" />
            <mxPoint x="870" y="630" as="targetPoint" />
          </mxGeometry>
        </mxCell>
        <mxCell id="Cysnax2tPpi3eK0t_XXS-15" value="" style="endArrow=classic;html=1;rounded=0;entryX=0;entryY=0.5;entryDx=0;entryDy=0;flowAnimation=1;strokeColor=#FFFF00;" edge="1" parent="1" target="Cysnax2tPpi3eK0t_XXS-12">
          <mxGeometry width="50" height="50" relative="1" as="geometry">
            <mxPoint x="820" y="680" as="sourcePoint" />
            <mxPoint x="910" y="580" as="targetPoint" />
          </mxGeometry>
        </mxCell>
        <mxCell id="Cysnax2tPpi3eK0t_XXS-16" value="" style="endArrow=classic;html=1;rounded=0;exitX=1;exitY=0.5;exitDx=0;exitDy=0;entryX=0;entryY=0.5;entryDx=0;entryDy=0;flowAnimation=1;strokeColor=#FFFF00;" edge="1" parent="1" source="Cysnax2tPpi3eK0t_XXS-3" target="Cysnax2tPpi3eK0t_XXS-13">
          <mxGeometry width="50" height="50" relative="1" as="geometry">
            <mxPoint x="830" y="690" as="sourcePoint" />
            <mxPoint x="910" y="580" as="targetPoint" />
          </mxGeometry>
        </mxCell>
        <mxCell id="Cysnax2tPpi3eK0t_XXS-18" value="" style="endArrow=none;html=1;rounded=0;entryX=0;entryY=0;entryDx=0;entryDy=0;exitX=1;exitY=0;exitDx=0;exitDy=0;strokeColor=#6666FF;" edge="1" parent="1" source="Cysnax2tPpi3eK0t_XXS-4">
          <mxGeometry width="50" height="50" relative="1" as="geometry">
            <mxPoint x="690" y="480" as="sourcePoint" />
            <mxPoint x="880" y="160" as="targetPoint" />
          </mxGeometry>
        </mxCell>
        <mxCell id="Cysnax2tPpi3eK0t_XXS-19" value="" style="endArrow=none;html=1;rounded=0;exitX=1;exitY=0;exitDx=0;exitDy=0;entryX=1;entryY=1;entryDx=0;entryDy=0;strokeColor=#6666FF;" edge="1" parent="1" source="Cysnax2tPpi3eK0t_XXS-4">
          <mxGeometry width="50" height="50" relative="1" as="geometry">
            <mxPoint x="720" y="490" as="sourcePoint" />
            <mxPoint x="1220" y="440" as="targetPoint" />
          </mxGeometry>
        </mxCell>
        <mxCell id="Cysnax2tPpi3eK0t_XXS-20" value="" style="endArrow=none;html=1;rounded=0;exitX=0;exitY=0;exitDx=0;exitDy=0;entryX=1;entryY=0;entryDx=0;entryDy=0;strokeColor=#6666FF;" edge="1" parent="1">
          <mxGeometry width="50" height="50" relative="1" as="geometry">
            <mxPoint x="880" y="160" as="sourcePoint" />
            <mxPoint x="1220" y="160" as="targetPoint" />
          </mxGeometry>
        </mxCell>
        <mxCell id="Cysnax2tPpi3eK0t_XXS-21" value="" style="endArrow=none;html=1;rounded=0;entryX=1;entryY=0;entryDx=0;entryDy=0;exitX=1;exitY=1;exitDx=0;exitDy=0;strokeColor=#6666FF;" edge="1" parent="1">
          <mxGeometry width="50" height="50" relative="1" as="geometry">
            <mxPoint x="1220" y="440" as="sourcePoint" />
            <mxPoint x="1220" y="160" as="targetPoint" />
          </mxGeometry>
        </mxCell>
        <mxCell id="Cysnax2tPpi3eK0t_XXS-22" value="" style="endArrow=none;html=1;rounded=0;strokeColor=#B5739D;" edge="1" parent="1">
          <mxGeometry width="50" height="50" relative="1" as="geometry">
            <mxPoint x="880" y="440" as="sourcePoint" />
            <mxPoint x="880" y="160" as="targetPoint" />
          </mxGeometry>
        </mxCell>
        <mxCell id="Cysnax2tPpi3eK0t_XXS-23" value="" style="endArrow=none;html=1;rounded=0;strokeColor=#B5739D;" edge="1" parent="1">
          <mxGeometry width="50" height="50" relative="1" as="geometry">
            <mxPoint x="880" y="440" as="sourcePoint" />
            <mxPoint x="1220" y="440" as="targetPoint" />
          </mxGeometry>
        </mxCell>
        <mxCell id="Cysnax2tPpi3eK0t_XXS-24" value="Handlers" style="rounded=1;whiteSpace=wrap;html=1;" vertex="1" parent="1">
          <mxGeometry x="890" y="170" width="120" height="60" as="geometry" />
        </mxCell>
        <mxCell id="Cysnax2tPpi3eK0t_XXS-25" value="Interfaces" style="rounded=1;whiteSpace=wrap;html=1;" vertex="1" parent="1">
          <mxGeometry x="1030" y="170" width="120" height="60" as="geometry" />
        </mxCell>
        <mxCell id="Cysnax2tPpi3eK0t_XXS-28" value="Model Mappers" style="rounded=1;whiteSpace=wrap;html=1;" vertex="1" parent="1">
          <mxGeometry x="1030" y="250" width="120" height="60" as="geometry" />
        </mxCell>
        <mxCell id="Cysnax2tPpi3eK0t_XXS-29" value="Model Validators" style="rounded=1;whiteSpace=wrap;html=1;" vertex="1" parent="1">
          <mxGeometry x="890" y="250" width="120" height="60" as="geometry" />
        </mxCell>
      </root>
    </mxGraphModel>
  </diagram>
</mxfile>
